<?xml version="1.0" encoding="UTF-8"?>
<svg version="1.1" xmlns="http://www.w3.org/2000/svg" width="321" height="299">
<path d="M0 0 C5.875 6.1957196 5.875 6.1957196 5.875 9.125 C4.575625 9.08375 3.27625 9.0425 1.9375 9 C-8.23143501 9.06365531 -15.76999496 11.79150101 -23.0703125 19.0625 C-30.83116574 28.2008207 -33.71469849 39.44265168 -35.125 51.125 C-45.125 49.125 -45.125 49.125 -47.55078125 48.578125 C-58.54927269 46.64212347 -70.19909187 47.76424303 -79.76171875 53.78515625 C-85.5738639 58.46369292 -89.25618078 63.88445404 -91.125 71.125 C-92.12153498 80.43244319 -92.06552659 88.81771419 -86.390625 96.4609375 C-82.43420707 101.19943804 -78.68683767 104.45995278 -73.125 107.125 C-73.125 107.785 -73.125 108.445 -73.125 109.125 C-75.63873865 110.81177237 -78.15107486 112.39225467 -80.75 113.9375 C-91.92961783 120.41395371 -91.92961783 120.41395371 -98.8125 131 C-100.75478968 144.2075698 -91.60143759 154.94944494 -84.36743164 165.33740234 C-83.50050961 166.58472069 -82.64648079 167.84105624 -81.80249023 169.10400391 C-79.34151845 173.00045212 -79.34151845 173.00045212 -75.3125 174.875 C-71.55972842 173.99199492 -69.12777608 172.39814131 -66.0546875 170.12109375 C-64.125 169.125 -64.125 169.125 -62.21679688 169.26318359 C-59.24980807 170.48557744 -58.40985536 172.20761066 -56.7265625 174.91796875 C-56.08952393 175.92964111 -55.45248535 176.94131348 -54.79614258 177.98364258 C-54.12091553 179.08216553 -53.44568848 180.18068848 -52.75 181.3125 C-52.03726866 182.45217815 -51.32330416 183.59108596 -50.6081543 184.72924805 C-49.14531578 187.06044887 -47.6885788 189.3952845 -46.23681641 191.73339844 C-43.171288 196.6566725 -40.05585488 201.54758362 -36.9375 206.4375 C-36.3710376 207.32816162 -35.8045752 208.21882324 -35.22094727 209.13647461 C-29.70083513 217.81138812 -24.13262698 226.45346844 -18.48046875 235.04296875 C-17.2850067 236.87922602 -16.12075427 238.73008286 -14.96875 240.59375 C-14.3809375 241.5115625 -13.793125 242.429375 -13.1875 243.375 C-12.72472656 244.12265625 -12.26195312 244.8703125 -11.78515625 245.640625 C-10.14838084 247.39651283 -10.14838084 247.39651283 -7.35571289 247.40795898 C-3.62654723 247.08134348 -1.87821681 246.1349012 1.2265625 244.08203125 C2.23227295 243.42702637 3.2379834 242.77202148 4.27416992 242.09716797 C5.33869385 241.38447754 6.40321777 240.67178711 7.5 239.9375 C8.62194207 239.2006735 9.74475664 238.46517393 10.8684082 237.73095703 C13.13950894 236.24419639 15.40564611 234.75033111 17.66748047 233.24951172 C22.11399291 230.30434874 26.58807074 227.40247967 31.0625 224.5 C31.86333008 223.97825195 32.66416016 223.45650391 33.48925781 222.91894531 C42.31664622 217.16964425 51.21102076 211.52631931 60.10595703 205.88232422 C72.81333372 197.81781202 85.50608155 189.7302634 98.1875 181.625 C99.21915283 180.9664502 100.25080566 180.30790039 101.3137207 179.62939453 C107.21067971 175.85746146 113.06820644 172.03441626 118.875 168.125 C119.535 168.455 120.195 168.785 120.875 169.125 C108.87276236 183.33454571 108.87276236 183.33454571 103.41796875 188.58203125 C101.7920203 190.2079797 100.34574922 191.92037814 98.875 193.6875 C90.85364222 203.00027819 81.197502 211.14411268 71.875 219.125 C70.88757813 219.99125 69.90015625 220.8575 68.8828125 221.75 C60.54947896 229.02895621 51.90675191 235.80687166 43.0703125 242.46191406 C40.84812072 244.14536273 38.64096092 245.84681132 36.4375 247.5546875 C13.62486674 265.22334522 13.62486674 265.22334522 9.859375 265.01171875 C-8.72823103 256.70583968 -25.55297491 240.05143697 -41.125 227.125 C-41.69653809 226.65255859 -42.26807617 226.18011719 -42.85693359 225.69335938 C-54.74816084 215.84426875 -65.9554479 205.38318614 -76.91506958 194.51016235 C-78.33125098 193.10588139 -79.75138008 191.70558509 -81.17163086 190.30541992 C-87.26157768 184.2231286 -92.76884654 177.85670209 -98.125 171.125 C-99.14860795 169.89272055 -100.17545985 168.66312079 -101.20703125 167.4375 C-128.51184559 134.53119766 -144.81031863 96.29229036 -141.8515625 53.13671875 C-139.49291772 33.84478457 -131.84538446 15.78628819 -119.125 1.125 C-118.465 0.135 -117.805 -0.855 -117.125 -1.875 C-116.465 -1.875 -115.805 -1.875 -115.125 -1.875 C-114.795 -2.865 -114.465 -3.855 -114.125 -4.875 C-112.01167772 -6.60915876 -109.92510089 -8.19282726 -107.6875 -9.75 C-107.0493335 -10.19617676 -106.41116699 -10.64235352 -105.75366211 -11.10205078 C-72.43060209 -34.02710905 -28.25843437 -27.66351997 0 0 Z " fill="#41C3AE" transform="translate(149.125,28.875)"/>
<path d="M0 0 C2.48472307 1.93089925 4.86668373 3.92582453 7.21875 6.015625 C7.85425781 6.58023437 8.48976563 7.14484375 9.14453125 7.7265625 C21.37008685 19.27442655 29.22924705 35.86763688 33.21875 52.015625 C33.43144531 52.86769531 33.64414062 53.71976562 33.86328125 54.59765625 C38.2028526 74.92183572 36.56128836 96.33695467 30.21875 116.015625 C30.01797852 116.63969238 29.81720703 117.26375977 29.61035156 117.90673828 C24.11949025 134.58660434 15.67470553 149.94807131 5.21875 164.015625 C1.61921773 162.81578091 1.26825327 161.95816124 -0.6796875 158.80859375 C-1.23462891 157.92236328 -1.78957031 157.03613281 -2.36132812 156.12304688 C-2.95365234 155.15947266 -3.54597656 154.19589844 -4.15625 153.203125 C-5.42354169 151.1751951 -6.69179072 149.14786318 -7.9609375 147.12109375 C-8.6012793 146.09419434 -9.24162109 145.06729492 -9.90136719 144.00927734 C-12.64268887 139.64381156 -15.45825065 135.32854067 -18.28125 131.015625 C-24.63290788 121.28135816 -30.87473938 111.47863833 -37.10058594 101.66357422 C-39.98980553 97.11150047 -42.88570052 92.56367404 -45.78125 88.015625 C-43.3105065 85.48872824 -41.07496355 83.4916319 -38.03125 81.703125 C-35.25590711 79.72073722 -34.85694766 79.29138076 -33.90625 75.828125 C-34.95001897 71.28027447 -36.79276903 68.71603211 -39.5859375 65.03515625 C-41.26401886 62.7270479 -42.76119575 60.4655991 -44.2265625 58.02734375 C-44.64953613 57.32472412 -45.07250977 56.62210449 -45.50830078 55.89819336 C-46.33561562 54.51219506 -47.15479082 53.12129406 -47.96435547 51.72485352 C-51.34586379 46.12202255 -55.41782758 41.13676581 -61.78125 39.015625 C-71.89368897 37.27950716 -78.65679855 41.75175885 -86.78125 47.015625 C-88.40551469 48.0168189 -90.0303614 49.01707041 -91.65625 50.015625 C-93.203125 51.005625 -93.203125 51.005625 -94.78125 52.015625 C-96.61140202 48.73561229 -97.4376972 45.52359034 -98.34375 41.890625 C-101.04573142 32.87047649 -106.57547907 26.55991437 -114.78125 22.015625 C-106.67109297 6.76967609 -89.90713764 -4.08434435 -74.20703125 -10.01171875 C-49.33630353 -17.07307702 -21.32431557 -15.21453976 0 0 Z " fill="#40C7AB" transform="translate(276.78125,17.984375)"/>
<path d="M0 0 C6.97561003 4.52073188 11.11872327 10.18240703 13.03125 18.31640625 C13.54208894 24.16916095 13.22726174 29.5783187 12.03125 35.31640625 C14.09749279 34.01251031 16.16356561 32.70834808 18.22924805 31.40356445 C19.97825397 30.30000362 21.72842655 29.19828972 23.47973633 28.09838867 C29.01663123 24.61816612 29.01663123 24.61816612 34.4609375 20.99609375 C40.60796601 16.83422459 45.00064636 14.4575227 52.59375 15.75390625 C59.92057013 20.45058582 64.55860397 28.82255357 69.03125 36.06640625 C69.62808594 36.99839844 70.22492188 37.93039063 70.83984375 38.890625 C71.67708984 40.23833984 71.67708984 40.23833984 72.53125 41.61328125 C73.0365625 42.42120117 73.541875 43.22912109 74.0625 44.06152344 C75.03125 46.31640625 75.03125 46.31640625 74.88916016 48.46850586 C73.30264257 51.8857943 69.57145611 53.32763206 66.40625 55.12890625 C64.75062451 56.10472188 63.0970756 57.08406691 61.4453125 58.06640625 C60.56391602 58.58976562 59.68251953 59.113125 58.77441406 59.65234375 C54.03416632 62.52788029 49.41190655 65.58112806 44.78125 68.62890625 C36.09224988 74.33317983 27.35847614 79.95886268 18.56787109 85.50537109 C12.68053122 89.22931038 6.92122974 93.07542682 1.2734375 97.15625 C-0.96875 98.31640625 -0.96875 98.31640625 -2.9362793 98.13671875 C-5.61445762 97.05579633 -6.27469004 95.82349152 -7.73046875 93.3515625 C-8.20935547 92.55169922 -8.68824219 91.75183594 -9.18164062 90.92773438 C-9.66826172 90.08662109 -10.15488281 89.24550781 -10.65625 88.37890625 C-11.15447266 87.54166016 -11.65269531 86.70441406 -12.16601562 85.84179688 C-15.61197917 80.02994792 -15.61197917 80.02994792 -16.96875 77.31640625 C-16.63875 76.65640625 -16.30875 75.99640625 -15.96875 75.31640625 C-15.31121444 70.53518336 -15.25194138 67.32837136 -18.09375 63.31640625 C-21.32024198 61.07189009 -23.04436572 60.31640625 -26.96875 60.31640625 C-30.16995183 61.48607615 -32.2677287 62.39233272 -34.34375 65.12890625 C-35.50624233 69.19762941 -35.47823718 72.19553445 -33.71875 76.06640625 C-31.05289872 79.49392932 -29.01125369 80.17178873 -24.73046875 80.765625 C-19.27829544 82.30991088 -17.20073455 87.31921217 -14.53125 91.94140625 C-13.99048828 92.83859375 -13.44972656 93.73578125 -12.89257812 94.66015625 C-11.56531487 96.86834645 -10.25868954 99.08627662 -8.96875 101.31640625 C-13.27712974 106.11437459 -18.26063959 109.24890368 -23.71875 112.62890625 C-25.7073404 113.87711177 -27.69560952 115.12582927 -29.68359375 116.375 C-30.71726074 117.02194824 -31.75092773 117.66889648 -32.81591797 118.33544922 C-37.99218336 121.5877504 -43.13542022 124.89124867 -48.28125 128.19140625 C-49.30653809 128.84665283 -50.33182617 129.50189941 -51.38818359 130.17700195 C-56.34753307 133.34708232 -61.30016917 136.52666039 -66.2341156 139.7361145 C-68.54475436 141.23834346 -70.85858202 142.73561916 -73.17269897 144.23248291 C-74.8140068 145.29711339 -76.45063133 146.36895283 -78.0871582 147.44091797 C-79.07675537 148.0804541 -80.06635254 148.71999023 -81.0859375 149.37890625 C-82.39473877 150.23162109 -82.39473877 150.23162109 -83.72998047 151.1015625 C-85.96875 152.31640625 -85.96875 152.31640625 -88.96875 152.31640625 C-90.69693914 149.90842243 -92.21881453 147.54920811 -93.71875 145.00390625 C-94.60756129 143.53484658 -95.4968869 142.06609797 -96.38671875 140.59765625 C-96.82290527 139.870625 -97.2590918 139.14359375 -97.70849609 138.39453125 C-99.9528318 134.69368166 -102.33058053 131.08046428 -104.69140625 127.453125 C-107.12863852 123.3761646 -107.36532041 119.99593713 -106.96875 115.31640625 C-102.39885354 105.34572306 -89.18336113 99.86674159 -80.21850586 94.31591797 C-79.4116333 93.81334473 -78.60476074 93.31077148 -77.7734375 92.79296875 C-77.04108887 92.34002441 -76.30874023 91.88708008 -75.55419922 91.42041016 C-75.03100098 91.05608887 -74.50780273 90.69176758 -73.96875 90.31640625 C-73.96875 89.98640625 -73.96875 89.65640625 -73.96875 89.31640625 C-74.5978125 89.16945313 -75.226875 89.0225 -75.875 88.87109375 C-84.8941356 86.50764556 -91.69082099 82.15790079 -96.96875 74.31640625 C-100.29640137 66.8583238 -100.75890751 59.94116251 -98.28125 52.15625 C-95.33870912 45.33848786 -90.00377922 41.03434732 -83.65625 37.44140625 C-68.77784212 32.90223096 -55.49824502 36.8660623 -41.96875 43.31640625 C-42.195625 42.16140625 -42.4225 41.00640625 -42.65625 39.81640625 C-43.85795719 28.6122539 -40.66149764 16.34558606 -33.96875 7.31640625 C-24.98466069 -2.59896061 -12.33746189 -6.41458616 0 0 Z M-23.21875 15.87890625 C-30.44023177 25.93739872 -29.34721395 39.94395314 -27.5390625 51.48046875 C-27.11088497 54.25054903 -27.11088497 54.25054903 -25.96875 56.31640625 C-21.6312633 54.3138095 -18.56431304 51.48380813 -15.09375 48.25390625 C-14.46895752 47.67334473 -13.84416504 47.0927832 -13.20043945 46.49462891 C-6.37201074 40.00578483 -0.94074867 33.68406121 -0.59375 23.94140625 C-0.64576422 20.00392976 -0.76351496 18.63067241 -2.96875 15.25390625 C-10.51038393 10.38326767 -15.68938368 10.65017964 -23.21875 15.87890625 Z M-83.96875 56.31640625 C-85.71842397 59.8157542 -85.52064554 63.4980592 -84.96875 67.31640625 C-82.55815039 71.45962433 -80.84770927 72.96173847 -76.40625 74.75390625 C-62.78538601 77.09538564 -49.95638497 71.31022374 -37.96875 65.31640625 C-39.99750095 59.23015339 -47.632392 56.48604365 -53.09765625 53.75 C-63.3445656 49.33691389 -76.31260292 46.1608297 -83.96875 56.31640625 Z " fill="#2CB1A9" transform="translate(162.96875,44.68359375)"/>
<path d="M0 0 C1.73054204 2.29196566 3.13956059 4.46249976 4.5625 6.9375 C5.45292429 8.42407825 6.3449013 9.90972736 7.23828125 11.39453125 C7.69541504 12.1623291 8.15254883 12.93012695 8.62353516 13.72119141 C10.75067547 17.24278199 12.99819878 20.68230666 15.25 24.125 C20.14584517 31.65268018 24.96951135 39.22498664 29.78125 46.80664062 C34.01742791 53.47487201 38.29406989 60.11552708 42.625 66.72265625 C44.59354248 69.74230321 46.49999052 72.71664591 48 76 C41.62498 80.62801932 35.06498342 84.88346576 28.37231445 89.02929688 C23.43984364 92.08858344 18.55354642 95.21127435 13.6875 98.375 C12.28133373 99.28398371 10.87508227 100.19283564 9.46875 101.1015625 C7.12789529 102.61555336 4.79254295 104.13673306 2.46484375 105.67089844 C-0.12058847 107.37493331 -2.71577743 109.06323579 -5.3125 110.75 C-6.11921143 111.28802246 -6.92592285 111.82604492 -7.75708008 112.38037109 C-8.51400146 112.86844238 -9.27092285 113.35651367 -10.05078125 113.859375 C-10.71762939 114.29733398 -11.38447754 114.73529297 -12.0715332 115.18652344 C-14 116 -14 116 -16.13500977 115.76879883 C-19.02601374 114.57704971 -19.97170415 112.5511145 -21.625 109.9375 C-22.32238281 108.84695312 -23.01976562 107.75640625 -23.73828125 106.6328125 C-24.49340403 105.42263324 -25.24727511 104.21167219 -26 103 C-26.78487747 101.74722113 -27.57003928 100.49462037 -28.35546875 99.2421875 C-29.60305898 97.24895149 -30.84855405 95.25449102 -32.08984375 93.25732422 C-35.48141845 87.803478 -38.95266554 82.40532151 -42.45214844 77.02026367 C-47.57212373 69.13517926 -52.63184229 61.21166395 -57.69384766 53.28930664 C-58.35304199 52.25797607 -59.01223633 51.22664551 -59.69140625 50.1640625 C-60.28123291 49.24061035 -60.87105957 48.3171582 -61.47875977 47.36572266 C-62.63583716 45.56631968 -63.81332019 43.78001971 -65 42 C-65 41.01 -65 40.02 -65 39 C-62.88425384 37.45181615 -60.81788552 36.13232021 -58.5625 34.8125 C-57.08873607 33.92109961 -55.61615952 33.02773429 -54.14453125 32.1328125 C-52.91790771 31.3907959 -52.91790771 31.3907959 -51.66650391 30.63378906 C-46.64766492 27.55870478 -41.70353473 24.36628948 -36.75 21.1875 C-35.6882959 20.50921143 -34.6265918 19.83092285 -33.53271484 19.13208008 C-28.35821413 15.82132658 -23.20423128 12.48501631 -18.08984375 9.08203125 C-17.17557617 8.47657471 -16.26130859 7.87111816 -15.31933594 7.24731445 C-13.60509115 6.10920222 -11.89581462 4.96355956 -10.19238281 3.80932617 C-9.43151367 3.30506104 -8.67064453 2.8007959 -7.88671875 2.28125 C-7.22889404 1.83845703 -6.57106934 1.39566406 -5.89331055 0.93945312 C-4 0 -4 0 0 0 Z " fill="#29B0A8" transform="translate(229,109)"/>
<path d="M0 0 C3.48414165 1.42086775 4.92907559 2.94769296 6.890625 6.12890625 C7.42671387 6.98589111 7.96280273 7.84287598 8.51513672 8.72583008 C9.0876416 9.66193115 9.66014648 10.59803223 10.25 11.5625 C11.50720136 13.57850624 12.7650379 15.59411649 14.0234375 17.609375 C14.67666992 18.66189453 15.32990234 19.71441406 16.00292969 20.79882812 C19.24748715 25.99963955 22.56364016 31.15407569 25.875 36.3125 C26.53016602 37.33827148 27.18533203 38.36404297 27.86035156 39.42089844 C31.0249637 44.3749409 34.20197377 49.31989769 37.41970825 54.23957825 C38.92308955 56.53974805 40.41984796 58.84419039 41.91607666 61.14901733 C42.9790924 62.78041339 44.05171237 64.40553846 45.12451172 66.03051758 C45.76404785 67.01689209 46.40358398 68.0032666 47.0625 69.01953125 C47.63097656 69.88682861 48.19945312 70.75412598 48.78515625 71.64770508 C50 74 50 74 50 78 C47.87494003 79.63417429 45.8749446 80.92592771 43.5625 82.25 C42.09247093 83.12937576 40.62381383 84.01104748 39.15625 84.89453125 C37.93035156 85.62663818 37.93035156 85.62663818 36.6796875 86.37353516 C31.58156223 89.46789654 26.57871931 92.71270631 21.5625 95.9375 C20.49378662 96.62247559 19.42507324 97.30745117 18.32397461 98.01318359 C3.60499541 107.41906603 3.60499541 107.41906603 -11 117 C-11.99 117 -12.98 117 -14 117 C-15.34350586 115.46557617 -15.34350586 115.46557617 -16.71484375 113.29296875 C-17.4869519 112.0870105 -17.4869519 112.0870105 -18.2746582 110.85668945 C-19.09776489 109.53544067 -19.09776489 109.53544067 -19.9375 108.1875 C-20.5152417 107.27895264 -21.0929834 106.37040527 -21.68823242 105.43432617 C-23.46896845 102.62915033 -25.23532099 99.81529718 -27 97 C-27.98611031 95.43955476 -28.97303741 93.87962527 -29.9609375 92.3203125 C-31.89527112 89.26462125 -33.82397118 86.20546263 -35.75 83.14453125 C-40.23115877 76.03575834 -44.77136073 68.96467522 -49.3059082 61.88989258 C-50.57710533 59.90656809 -51.84707825 57.92245832 -53.11572266 55.9375 C-54.41512403 53.91179421 -55.7225938 51.89124903 -57.03662109 49.875 C-57.67809082 48.885 -58.31956055 47.895 -58.98046875 46.875 C-59.56078857 45.98554688 -60.1411084 45.09609375 -60.73901367 44.1796875 C-62 42 -62 42 -62 40 C-60.10180664 38.55810547 -60.10180664 38.55810547 -57.41015625 36.8671875 C-55.91005005 35.91682617 -55.91005005 35.91682617 -54.37963867 34.94726562 C-53.28498291 34.26341797 -52.19032715 33.57957031 -51.0625 32.875 C-49.93221954 32.16156565 -48.80242419 31.4473622 -47.6730957 30.73242188 C-45.31230171 29.238796 -42.94941664 27.74856424 -40.58496094 26.26074219 C-34.9345525 22.70191506 -29.31194604 19.0996798 -23.6875 15.5 C-22.19778687 14.55036377 -22.19778687 14.55036377 -20.67797852 13.58154297 C-13.72575737 9.14073532 -6.84905359 4.5977548 0 0 Z " fill="#29B0A8" transform="translate(156,153)"/>
<path d="M0 0 C0.99 0.495 0.99 0.495 2 1 C-10.00223764 15.20954571 -10.00223764 15.20954571 -15.45703125 20.45703125 C-17.0829797 22.0829797 -18.52925078 23.79537814 -20 25.5625 C-28.02135778 34.87527819 -37.677498 43.01911268 -47 51 C-47.98742187 51.86625 -48.97484375 52.7325 -49.9921875 53.625 C-58.32552104 60.90395621 -66.96824809 67.68187166 -75.8046875 74.33691406 C-78.02687928 76.02036273 -80.23403908 77.72181132 -82.4375 79.4296875 C-105.22681139 97.08028216 -105.22681139 97.08028216 -108.984375 96.91015625 C-118.81942136 92.46913725 -127.55766421 84.64493527 -136 78 C-135.01 77.01 -135.01 77.01 -134 76 C-133.505 75.01 -133.505 75.01 -133 74 C-132.195625 75.2375 -132.195625 75.2375 -131.375 76.5 C-129.24494835 79.27236316 -129.24494835 79.27236316 -126.18603516 79.34643555 C-122.52221827 78.9480481 -120.70844879 77.98030073 -117.6484375 75.95703125 C-116.64272705 75.30202637 -115.6370166 74.64702148 -114.60083008 73.97216797 C-113.53630615 73.25947754 -112.47178223 72.54678711 -111.375 71.8125 C-110.25305793 71.0756735 -109.13024336 70.34017393 -108.0065918 69.60595703 C-105.73549106 68.11919639 -103.46935389 66.62533111 -101.20751953 65.12451172 C-96.76100709 62.17934874 -92.28692926 59.27747967 -87.8125 56.375 C-87.01166992 55.85325195 -86.21083984 55.33150391 -85.38574219 54.79394531 C-76.55835378 49.04464425 -67.66397924 43.40131931 -58.76904297 37.75732422 C-46.06166628 29.69281202 -33.36891845 21.6052634 -20.6875 13.5 C-19.65584717 12.8414502 -18.62419434 12.18290039 -17.5612793 11.50439453 C-11.66432029 7.73246146 -5.80679356 3.90941626 0 0 Z " fill="#49E09E" transform="translate(268,197)"/>
<path d="M0 0 C1.0616685 3.31674538 0.89277729 5.81864698 0.4375 9.25 C-0.32925538 16.9942293 0.82637633 24.35689712 2 32 C8.0607981 27.06806664 14.09490247 22.1177512 20 17 C18.3383196 21.12417063 15.37661982 24.06554039 12.375 27.25 C11.859375 27.80429688 11.34375 28.35859375 10.8125 28.9296875 C9.54574965 30.2902712 8.27342185 31.64565837 7 33 C7.66 34.32 8.32 35.64 9 37 C5.37 36.67 1.74 36.34 -2 36 C-1.01 35.505 -1.01 35.505 0 35 C-0.144375 34.2471875 -0.28875 33.494375 -0.4375 32.71875 C-2.28714157 22.13468989 -3.98544542 10.23247297 0 0 Z " fill="#86D3CF" transform="translate(135,69)"/>
<path d="M0 0 C0.66 0 1.32 0 2 0 C3.24926758 1.63305664 3.24926758 1.63305664 4.64453125 3.91015625 C5.15693359 4.73580078 5.66933594 5.56144531 6.19726562 6.41210938 C6.99680664 7.72405273 6.99680664 7.72405273 7.8125 9.0625 C13.69220021 19.06632905 13.69220021 19.06632905 21 28 C19.68 28 18.36 28 17 28 C15.30834961 26.07568359 15.30834961 26.07568359 13.65234375 23.3984375 C12.74452148 21.95017578 12.74452148 21.95017578 11.81835938 20.47265625 C11.19767578 19.45042969 10.57699219 18.42820313 9.9375 17.375 C9.31294922 16.37597656 8.68839844 15.37695312 8.04492188 14.34765625 C5.13756376 9.66237264 2.32954709 5.00041977 0 0 Z " fill="#6FE8B1" transform="translate(262,153)"/>
<path d="M0 0 C0.66 0.33 1.32 0.66 2 1 C-7.76873265 12.47826087 -7.76873265 12.47826087 -13 17 C-13.66 17 -14.32 17 -15 17 C-14.67 17.99 -14.34 18.98 -14 20 C-14.99 19.67 -15.98 19.34 -17 19 C-14.44614029 14.03468911 -10.764409 10.53635019 -6.8125 6.6875 C-6.15830078 6.04232422 -5.50410156 5.39714844 -4.83007812 4.73242188 C-3.22451217 3.15029484 -1.6144531 1.5730487 0 0 Z " fill="#65C7C2" transform="translate(179,21)"/>
<path d="M0 0 C0 3.46116323 -0.32867017 3.70862016 -2.625 6.06640625 C-3.16640625 6.63423828 -3.7078125 7.20207031 -4.265625 7.78710938 C-4.83796875 8.37298828 -5.4103125 8.95886719 -6 9.5625 C-10.20538879 13.22062378 -10.20538879 13.22062378 -12 18 C-12.99 17.67 -13.98 17.34 -15 17 C-14.42586138 13.58760549 -13.39359746 12.06630402 -10.83984375 9.765625 C-9.8972168 8.90517578 -9.8972168 8.90517578 -8.93554688 8.02734375 C-8.27619141 7.44082031 -7.61683594 6.85429688 -6.9375 6.25 C-6.27427734 5.64800781 -5.61105469 5.04601562 -4.92773438 4.42578125 C-3.29180613 2.94285349 -1.64923045 1.46809743 0 0 Z " fill="#62C4BF" transform="translate(154,86)"/>
<path d="M0 0 C1.32 0 2.64 0 4 0 C6.9260538 5.60826978 8.04594816 10.66926116 7 17 C5 19.625 5 19.625 3 21 C3.15855469 20.2884375 3.31710938 19.576875 3.48046875 18.84375 C4.56891503 12.88593881 5.29240622 7.05977242 2 1.8125 C1.34 1.214375 0.68 0.61625 0 0 Z " fill="#9BD8D5" transform="translate(157,58)"/>
<path d="M0 0 C0.66 0.33 1.32 0.66 2 1 C0.7625 2.0828125 0.7625 2.0828125 -0.5 3.1875 C-4.56948789 7.92186196 -3.39116521 14.14121435 -3 20 C-5.68230184 17.31769816 -5.9592464 15.43198814 -6.3125 11.6875 C-5.87386855 6.51164888 -3.60392626 3.60392626 0 0 Z " fill="#5EC3BE" transform="translate(62,152)"/>
<path d="M0 0 C1.41152344 0.10828125 1.41152344 0.10828125 2.8515625 0.21875 C4.71941406 0.35796875 4.71941406 0.35796875 6.625 0.5 C8.46964844 0.63921875 8.46964844 0.63921875 10.3515625 0.78125 C13.58037857 0.97484069 16.76678675 1.03979339 20 1 C17.10268008 3.89731992 13.91936386 3.82869913 10 4 C7.16772794 3.92572713 4.80685037 3.58072766 2 3 C1.34 2.01 0.68 1.02 0 0 Z " fill="#7BCDC8" transform="translate(83,118)"/>
<path d="M0 0 C1.0828125 1.2065625 1.0828125 1.2065625 2.1875 2.4375 C5.02515689 5.02292072 6.27166147 5.68042813 10 6 C8.68 6.99 7.36 7.98 6 9 C2.63408134 7.55746343 0.48952921 5.66735273 -2 3 C-1.34 2.67 -0.68 2.34 0 2 C0 1.34 0 0.68 0 0 Z " fill="#73E9B2" transform="translate(134,271)"/>
<path d="M0 0 C0.825 0.144375 1.65 0.28875 2.5 0.4375 C6.32686278 1.05253152 10.15216707 1.53560637 14 2 C14 2.99 14 3.98 14 5 C12.68 5.33 11.36 5.66 10 6 C10 5.34 10 4.68 10 4 C6.7 3.01 3.4 2.02 0 1 C0 0.67 0 0.34 0 0 Z " fill="#6BC7C0" transform="translate(79,130)"/>
<path d="M0 0 C0.66 0 1.32 0 2 0 C2 0.66 2 1.32 2 2 C2.66 2 3.32 2 4 2 C4.33 2.66 4.66 3.32 5 4 C7.01669827 5.13350534 7.01669827 5.13350534 9 6 C6.47946405 7.26026798 5.1457902 6.91874445 2.375 6.5625 C1.14910156 6.40974609 1.14910156 6.40974609 -0.1015625 6.25390625 C-1.04128906 6.12822266 -1.04128906 6.12822266 -2 6 C-1.34 5.67 -0.68 5.34 0 5 C0 3.35 0 1.7 0 0 Z " fill="#76CCC7" transform="translate(135,99)"/>
<path d="M0 0 C0.66 0.33 1.32 0.66 2 1 C0.02 3.31 -1.96 5.62 -4 8 C-4.33 7.34 -4.66 6.68 -5 6 C-5.66 5.67 -6.32 5.34 -7 5 C-4.69 3.35 -2.38 1.7 0 0 Z " fill="#72E0B9" transform="translate(268,197)"/>
<path d="M0 0 C0.66 0.33 1.32 0.66 2 1 C1.07038578 2.15224028 0.1309875 3.29659176 -0.8125 4.4375 C-1.59560547 5.39462891 -1.59560547 5.39462891 -2.39453125 6.37109375 C-4 8 -4 8 -7 9 C-5.44499019 5.18315774 -2.96404505 2.80804268 0 0 Z " fill="#57C1BB" transform="translate(74,85)"/>
<path d="M0 0 C1.65 0.33 3.3 0.66 5 1 C4.34 4.3 3.68 7.6 3 11 C2.67 11 2.34 11 2 11 C2 8.69 2 6.38 2 4 C1.01 3.67 0.02 3.34 -1 3 C-0.34 3 0.32 3 1 3 C0.67 2.01 0.34 1.02 0 0 Z " fill="#7ACCC7" transform="translate(124,107)"/>
<path d="M0 0 C0 0.66 0 1.32 0 2 C-4.62 2 -9.24 2 -14 2 C-13.67 1.34 -13.34 0.68 -13 0 C-10.56640625 -0.44921875 -10.56640625 -0.44921875 -7.5625 -0.6875 C-6.57378906 -0.77386719 -5.58507812 -0.86023437 -4.56640625 -0.94921875 C-2 -1 -2 -1 0 0 Z " fill="#73CCC8" transform="translate(155,36)"/>
<path d="M0 0 C0.66 0.33 1.32 0.66 2 1 C1.5359375 2.1446875 1.5359375 2.1446875 1.0625 3.3125 C0.32106407 5.18789677 -0.36228217 7.08684652 -1 9 C-1.99 7.02 -2.98 5.04 -4 3 C-2.68 2.01 -1.36 1.02 0 0 Z " fill="#6CDBB9" transform="translate(235,102)"/>
<path d="M0 0 C0.33 0 0.66 0 1 0 C1.63019694 9.17286652 1.63019694 9.17286652 -1 12.625 C-1.66 13.07875 -2.32 13.5325 -3 14 C-2.5359375 12.7625 -2.5359375 12.7625 -2.0625 11.5 C-0.88122417 7.60873845 -0.41775832 4.03833047 0 0 Z " fill="#67C7C1" transform="translate(163,65)"/>
<path d="M0 0 C-0.66 2.31 -1.32 4.62 -2 7 C-3.5 5.625 -3.5 5.625 -5 4 C-5 3.34 -5 2.68 -5 2 C-2 0 -2 0 0 0 Z " fill="#58C1BB" transform="translate(99,191)"/>
</svg>
